<?xml version="1.0" encoding="us-ascii" standalone="no"?><svg xmlns="http://www.w3.org/2000/svg" xmlns:xlink="http://www.w3.org/1999/xlink" contentStyleType="text/css" height="665px" preserveAspectRatio="none" style="width:465px;height:665px;background:#FFFFFF;" version="1.1" viewBox="0 0 465 665" width="465px" zoomAndPan="magnify"><defs/><g><!--class Tourist--><g id="elem_Tourist"><rect codeLine="5" fill="#F1F1F1" height="129.4844" id="Tourist" rx="2.5" ry="2.5" style="stroke:#181818;stroke-width:0.5;" width="217" x="200" y="7"/><ellipse cx="279.25" cy="23" fill="#ADD1B2" rx="11" ry="11" style="stroke:#181818;stroke-width:1.0;"/><path d="M278.0469,23.875 L279.5,23.875 L279.5,23.9844 C279.5,24.3906 279.5313,24.5469 279.6094,24.7031 C279.7656,24.9531 280.0469,25.1094 280.3438,25.1094 C280.5938,25.1094 280.8594,24.9688 281.0156,24.75 C281.1406,24.5938 281.1719,24.4375 281.1719,23.9844 L281.1719,22.0625 C281.1719,21.9063 281.1719,21.8594 281.1563,21.7031 C281.0938,21.2344 280.7813,20.9219 280.3281,20.9219 C280.0781,20.9219 279.8125,21.0625 279.6406,21.2813 C279.5313,21.4531 279.5,21.6094 279.5,22.0625 L279.5,22.1875 L278.0469,22.1875 L278.0469,19.7813 L282.0313,19.7813 L282.0313,20.6406 C282.0313,21.0469 282.0625,21.2188 282.1406,21.375 C282.3125,21.625 282.5938,21.7813 282.875,21.7813 C283.1406,21.7813 283.4063,21.6406 283.5781,21.4219 C283.6875,21.25 283.7188,21.1094 283.7188,20.6406 L283.7188,18.0938 L276.0938,18.0938 C275.6563,18.0938 275.5313,18.1094 275.375,18.2031 C275.125,18.3594 274.9688,18.6563 274.9688,18.9375 C274.9688,19.2188 275.1094,19.4688 275.3281,19.6406 C275.4844,19.75 275.6719,19.7813 276.0938,19.7813 L276.3438,19.7813 L276.3438,26.2969 L276.0938,26.2969 C275.6875,26.2969 275.5313,26.3125 275.375,26.4219 C275.125,26.5938 274.9688,26.8594 274.9688,27.1563 C274.9688,27.4219 275.1094,27.6719 275.3281,27.8281 C275.4688,27.9531 275.7031,28 276.0938,28 L284.0938,28 L284.0938,25.4219 C284.0938,24.9844 284.0625,24.8438 283.9844,24.6875 C283.8125,24.4375 283.5313,24.2813 283.25,24.2813 C282.9844,24.2813 282.7188,24.3906 282.5469,24.6406 C282.4375,24.7969 282.4063,24.9375 282.4063,25.4219 L282.4063,26.2969 L278.0469,26.2969 L278.0469,23.875 Z " fill="#000000"/><text fill="#000000" font-family="sans-serif" font-size="14" lengthAdjust="spacing" textLength="50" x="299.75" y="27.8467">Tourist</text><line style="stroke:#181818;stroke-width:0.5;" x1="201" x2="416" y1="39" y2="39"/><text fill="#000000" font-family="sans-serif" font-size="14" lengthAdjust="spacing" textLength="71" x="206" y="55.9951">LastName</text><text fill="#000000" font-family="sans-serif" font-size="14" lengthAdjust="spacing" textLength="39" x="206" y="72.292">Email</text><text fill="#000000" font-family="sans-serif" font-size="14" lengthAdjust="spacing" textLength="66" x="206" y="88.5889">Password</text><text fill="#000000" font-family="sans-serif" font-size="14" lengthAdjust="spacing" textLength="57" x="206" y="104.8857">Country</text><line style="stroke:#181818;stroke-width:0.5;" x1="201" x2="416" y1="112.1875" y2="112.1875"/><text fill="#000000" font-family="sans-serif" font-size="14" lengthAdjust="spacing" textLength="205" x="206" y="129.1826">TouristID "(PK)" -- FirstName</text></g><!--class Booking--><g id="elem_Booking"><rect codeLine="13" fill="#F1F1F1" height="80.5938" id="Booking" rx="2.5" ry="2.5" style="stroke:#181818;stroke-width:0.5;" width="188" x="214.5" y="213"/><ellipse cx="274.75" cy="229" fill="#ADD1B2" rx="11" ry="11" style="stroke:#181818;stroke-width:1.0;"/><path d="M273.5469,229.875 L275,229.875 L275,229.9844 C275,230.3906 275.0313,230.5469 275.1094,230.7031 C275.2656,230.9531 275.5469,231.1094 275.8438,231.1094 C276.0938,231.1094 276.3594,230.9688 276.5156,230.75 C276.6406,230.5938 276.6719,230.4375 276.6719,229.9844 L276.6719,228.0625 C276.6719,227.9063 276.6719,227.8594 276.6563,227.7031 C276.5938,227.2344 276.2813,226.9219 275.8281,226.9219 C275.5781,226.9219 275.3125,227.0625 275.1406,227.2813 C275.0313,227.4531 275,227.6094 275,228.0625 L275,228.1875 L273.5469,228.1875 L273.5469,225.7813 L277.5313,225.7813 L277.5313,226.6406 C277.5313,227.0469 277.5625,227.2188 277.6406,227.375 C277.8125,227.625 278.0938,227.7813 278.375,227.7813 C278.6406,227.7813 278.9063,227.6406 279.0781,227.4219 C279.1875,227.25 279.2188,227.1094 279.2188,226.6406 L279.2188,224.0938 L271.5938,224.0938 C271.1563,224.0938 271.0313,224.1094 270.875,224.2031 C270.625,224.3594 270.4688,224.6563 270.4688,224.9375 C270.4688,225.2188 270.6094,225.4688 270.8281,225.6406 C270.9844,225.75 271.1719,225.7813 271.5938,225.7813 L271.8438,225.7813 L271.8438,232.2969 L271.5938,232.2969 C271.1875,232.2969 271.0313,232.3125 270.875,232.4219 C270.625,232.5938 270.4688,232.8594 270.4688,233.1563 C270.4688,233.4219 270.6094,233.6719 270.8281,233.8281 C270.9688,233.9531 271.2031,234 271.5938,234 L279.5938,234 L279.5938,231.4219 C279.5938,230.9844 279.5625,230.8438 279.4844,230.6875 C279.3125,230.4375 279.0313,230.2813 278.75,230.2813 C278.4844,230.2813 278.2188,230.3906 278.0469,230.6406 C277.9375,230.7969 277.9063,230.9375 277.9063,231.4219 L277.9063,232.2969 L273.5469,232.2969 L273.5469,229.875 Z " fill="#000000"/><text fill="#000000" font-family="sans-serif" font-size="14" lengthAdjust="spacing" textLength="59" x="295.25" y="233.8467">Booking</text><line style="stroke:#181818;stroke-width:0.5;" x1="215.5" x2="401.5" y1="245" y2="245"/><text fill="#000000" font-family="sans-serif" font-size="14" lengthAdjust="spacing" textLength="94" x="220.5" y="261.9951">TotalAmount</text><line style="stroke:#181818;stroke-width:0.5;" x1="215.5" x2="401.5" y1="269.2969" y2="269.2969"/><text fill="#000000" font-family="sans-serif" font-size="14" lengthAdjust="spacing" textLength="176" x="220.5" y="286.292">BookingID "(PK)" -- Date</text></g><!--class TrekkingPackage--><g id="elem_TrekkingPackage"><rect codeLine="18" fill="#F1F1F1" height="96.8906" id="TrekkingPackage" rx="2.5" ry="2.5" style="stroke:#181818;stroke-width:0.5;" width="187" x="48" y="371"/><ellipse cx="76.95" cy="387" fill="#ADD1B2" rx="11" ry="11" style="stroke:#181818;stroke-width:1.0;"/><path d="M75.7469,387.875 L77.2,387.875 L77.2,387.9844 C77.2,388.3906 77.2313,388.5469 77.3094,388.7031 C77.4656,388.9531 77.7469,389.1094 78.0438,389.1094 C78.2938,389.1094 78.5594,388.9688 78.7156,388.75 C78.8406,388.5938 78.8719,388.4375 78.8719,387.9844 L78.8719,386.0625 C78.8719,385.9063 78.8719,385.8594 78.8563,385.7031 C78.7938,385.2344 78.4813,384.9219 78.0281,384.9219 C77.7781,384.9219 77.5125,385.0625 77.3406,385.2813 C77.2313,385.4531 77.2,385.6094 77.2,386.0625 L77.2,386.1875 L75.7469,386.1875 L75.7469,383.7813 L79.7313,383.7813 L79.7313,384.6406 C79.7313,385.0469 79.7625,385.2188 79.8406,385.375 C80.0125,385.625 80.2938,385.7813 80.575,385.7813 C80.8406,385.7813 81.1063,385.6406 81.2781,385.4219 C81.3875,385.25 81.4188,385.1094 81.4188,384.6406 L81.4188,382.0938 L73.7938,382.0938 C73.3563,382.0938 73.2313,382.1094 73.075,382.2031 C72.825,382.3594 72.6688,382.6563 72.6688,382.9375 C72.6688,383.2188 72.8094,383.4688 73.0281,383.6406 C73.1844,383.75 73.3719,383.7813 73.7938,383.7813 L74.0438,383.7813 L74.0438,390.2969 L73.7938,390.2969 C73.3875,390.2969 73.2313,390.3125 73.075,390.4219 C72.825,390.5938 72.6688,390.8594 72.6688,391.1563 C72.6688,391.4219 72.8094,391.6719 73.0281,391.8281 C73.1688,391.9531 73.4031,392 73.7938,392 L81.7938,392 L81.7938,389.4219 C81.7938,388.9844 81.7625,388.8438 81.6844,388.6875 C81.5125,388.4375 81.2313,388.2813 80.95,388.2813 C80.6844,388.2813 80.4188,388.3906 80.2469,388.6406 C80.1375,388.7969 80.1063,388.9375 80.1063,389.4219 L80.1063,390.2969 L75.7469,390.2969 L75.7469,387.875 Z " fill="#000000"/><text fill="#000000" font-family="sans-serif" font-size="14" lengthAdjust="spacing" textLength="124" x="94.05" y="391.8467">TrekkingPackage</text><line style="stroke:#181818;stroke-width:0.5;" x1="49" x2="234" y1="403" y2="403"/><text fill="#000000" font-family="sans-serif" font-size="14" lengthAdjust="spacing" textLength="84" x="54" y="419.9951">Description</text><text fill="#000000" font-family="sans-serif" font-size="14" lengthAdjust="spacing" textLength="36" x="54" y="436.292">Price</text><line style="stroke:#181818;stroke-width:0.5;" x1="49" x2="234" y1="443.5938" y2="443.5938"/><text fill="#000000" font-family="sans-serif" font-size="14" lengthAdjust="spacing" textLength="175" x="54" y="460.5889">PackageID "(PK)" -- Title</text></g><!--class TourOperator--><g id="elem_TourOperator"><rect codeLine="24" fill="#F1F1F1" height="113.1875" id="TourOperator" rx="2.5" ry="2.5" style="stroke:#181818;stroke-width:0.5;" width="269" x="7" y="545"/><ellipse cx="88.25" cy="561" fill="#ADD1B2" rx="11" ry="11" style="stroke:#181818;stroke-width:1.0;"/><path d="M87.0469,561.875 L88.5,561.875 L88.5,561.9844 C88.5,562.3906 88.5313,562.5469 88.6094,562.7031 C88.7656,562.9531 89.0469,563.1094 89.3438,563.1094 C89.5938,563.1094 89.8594,562.9688 90.0156,562.75 C90.1406,562.5938 90.1719,562.4375 90.1719,561.9844 L90.1719,560.0625 C90.1719,559.9063 90.1719,559.8594 90.1563,559.7031 C90.0938,559.2344 89.7813,558.9219 89.3281,558.9219 C89.0781,558.9219 88.8125,559.0625 88.6406,559.2813 C88.5313,559.4531 88.5,559.6094 88.5,560.0625 L88.5,560.1875 L87.0469,560.1875 L87.0469,557.7813 L91.0313,557.7813 L91.0313,558.6406 C91.0313,559.0469 91.0625,559.2188 91.1406,559.375 C91.3125,559.625 91.5938,559.7813 91.875,559.7813 C92.1406,559.7813 92.4063,559.6406 92.5781,559.4219 C92.6875,559.25 92.7188,559.1094 92.7188,558.6406 L92.7188,556.0938 L85.0938,556.0938 C84.6563,556.0938 84.5313,556.1094 84.375,556.2031 C84.125,556.3594 83.9688,556.6563 83.9688,556.9375 C83.9688,557.2188 84.1094,557.4688 84.3281,557.6406 C84.4844,557.75 84.6719,557.7813 85.0938,557.7813 L85.3438,557.7813 L85.3438,564.2969 L85.0938,564.2969 C84.6875,564.2969 84.5313,564.3125 84.375,564.4219 C84.125,564.5938 83.9688,564.8594 83.9688,565.1563 C83.9688,565.4219 84.1094,565.6719 84.3281,565.8281 C84.4688,565.9531 84.7031,566 85.0938,566 L93.0938,566 L93.0938,563.4219 C93.0938,562.9844 93.0625,562.8438 92.9844,562.6875 C92.8125,562.4375 92.5313,562.2813 92.25,562.2813 C91.9844,562.2813 91.7188,562.3906 91.5469,562.6406 C91.4375,562.7969 91.4063,562.9375 91.4063,563.4219 L91.4063,564.2969 L87.0469,564.2969 L87.0469,561.875 Z " fill="#000000"/><text fill="#000000" font-family="sans-serif" font-size="14" lengthAdjust="spacing" textLength="98" x="108.75" y="565.8467">TourOperator</text><line style="stroke:#181818;stroke-width:0.5;" x1="8" x2="275" y1="577" y2="577"/><text fill="#000000" font-family="sans-serif" font-size="14" lengthAdjust="spacing" textLength="107" x="13" y="593.9951">ContactPerson</text><text fill="#000000" font-family="sans-serif" font-size="14" lengthAdjust="spacing" textLength="39" x="13" y="610.292">Email</text><text fill="#000000" font-family="sans-serif" font-size="14" lengthAdjust="spacing" textLength="45" x="13" y="626.5889">Phone</text><line style="stroke:#181818;stroke-width:0.5;" x1="8" x2="275" y1="633.8906" y2="633.8906"/><text fill="#000000" font-family="sans-serif" font-size="14" lengthAdjust="spacing" textLength="257" x="13" y="650.8857">OperatorID "(PK)" -- CompanyName</text></g><!--class CustomerSupport--><g id="elem_CustomerSupport"><rect codeLine="31" fill="#F1F1F1" height="96.8906" id="CustomerSupport" rx="2.5" ry="2.5" style="stroke:#181818;stroke-width:0.5;" width="188" x="270.5" y="371"/><ellipse cx="297.65" cy="387" fill="#ADD1B2" rx="11" ry="11" style="stroke:#181818;stroke-width:1.0;"/><path d="M296.4469,387.875 L297.9,387.875 L297.9,387.9844 C297.9,388.3906 297.9313,388.5469 298.0094,388.7031 C298.1656,388.9531 298.4469,389.1094 298.7438,389.1094 C298.9938,389.1094 299.2594,388.9688 299.4156,388.75 C299.5406,388.5938 299.5719,388.4375 299.5719,387.9844 L299.5719,386.0625 C299.5719,385.9063 299.5719,385.8594 299.5563,385.7031 C299.4938,385.2344 299.1813,384.9219 298.7281,384.9219 C298.4781,384.9219 298.2125,385.0625 298.0406,385.2813 C297.9313,385.4531 297.9,385.6094 297.9,386.0625 L297.9,386.1875 L296.4469,386.1875 L296.4469,383.7813 L300.4313,383.7813 L300.4313,384.6406 C300.4313,385.0469 300.4625,385.2188 300.5406,385.375 C300.7125,385.625 300.9938,385.7813 301.275,385.7813 C301.5406,385.7813 301.8063,385.6406 301.9781,385.4219 C302.0875,385.25 302.1188,385.1094 302.1188,384.6406 L302.1188,382.0938 L294.4938,382.0938 C294.0563,382.0938 293.9313,382.1094 293.775,382.2031 C293.525,382.3594 293.3688,382.6563 293.3688,382.9375 C293.3688,383.2188 293.5094,383.4688 293.7281,383.6406 C293.8844,383.75 294.0719,383.7813 294.4938,383.7813 L294.7438,383.7813 L294.7438,390.2969 L294.4938,390.2969 C294.0875,390.2969 293.9313,390.3125 293.775,390.4219 C293.525,390.5938 293.3688,390.8594 293.3688,391.1563 C293.3688,391.4219 293.5094,391.6719 293.7281,391.8281 C293.8688,391.9531 294.1031,392 294.4938,392 L302.4938,392 L302.4938,389.4219 C302.4938,388.9844 302.4625,388.8438 302.3844,388.6875 C302.2125,388.4375 301.9313,388.2813 301.65,388.2813 C301.3844,388.2813 301.1188,388.3906 300.9469,388.6406 C300.8375,388.7969 300.8063,388.9375 300.8063,389.4219 L300.8063,390.2969 L296.4469,390.2969 L296.4469,387.875 Z " fill="#000000"/><text fill="#000000" font-family="sans-serif" font-size="14" lengthAdjust="spacing" textLength="129" x="314.35" y="391.8467">CustomerSupport</text><line style="stroke:#181818;stroke-width:0.5;" x1="271.5" x2="457.5" y1="403" y2="403"/><text fill="#000000" font-family="sans-serif" font-size="14" lengthAdjust="spacing" textLength="35" x="276.5" y="419.9951">Issue</text><text fill="#000000" font-family="sans-serif" font-size="14" lengthAdjust="spacing" textLength="76" x="276.5" y="436.292">Resolution</text><line style="stroke:#181818;stroke-width:0.5;" x1="271.5" x2="457.5" y1="443.5938" y2="443.5938"/><text fill="#000000" font-family="sans-serif" font-size="14" lengthAdjust="spacing" textLength="176" x="276.5" y="460.5889">SupportID "(PK)" -- Date</text></g><!--link Tourist to Booking--><g id="link_Tourist_Booking"><path codeLine="37" d="M308.5,136.215 C308.5,161.801 308.5,172.495 308.5,194.978 " fill="none" id="Tourist-to-Booking" style="stroke:#181818;stroke-width:1.0;"/><line style="stroke:#181818;stroke-width:1.0;" x1="308.5" x2="314.5" y1="204.978" y2="212.978"/><line style="stroke:#181818;stroke-width:1.0;" x1="308.5" x2="302.5" y1="204.978" y2="212.978"/><line style="stroke:#181818;stroke-width:1.0;" x1="308.5" x2="308.5" y1="204.978" y2="212.978"/><ellipse cx="308.5" cy="198.978" fill="none" rx="4" ry="4" style="stroke:#181818;stroke-width:1.0;"/><text fill="#000000" font-family="sans-serif" font-size="13" lengthAdjust="spacing" textLength="40" x="309.5" y="179.0669">Makes</text></g><!--link Booking to TrekkingPackage--><g id="link_Booking_TrekkingPackage"><path codeLine="38" d="M268.074,294.2 C244.52,317.33 227.5129,334.0331 202.7159,358.3841 " fill="none" id="Booking-to-TrekkingPackage" style="stroke:#181818;stroke-width:1.0;"/><line style="stroke:#181818;stroke-width:1.0;" x1="195.581" x2="194.077" y1="365.3907" y2="375.277"/><line style="stroke:#181818;stroke-width:1.0;" x1="195.581" x2="185.669" y1="365.3907" y2="366.715"/><line style="stroke:#181818;stroke-width:1.0;" x1="195.581" x2="189.873" y1="365.3907" y2="370.996"/><ellipse cx="199.8619" cy="361.1867" fill="none" rx="4" ry="4" style="stroke:#181818;stroke-width:1.0;"/><text fill="#000000" font-family="sans-serif" font-size="13" lengthAdjust="spacing" textLength="38" x="236.5" y="337.0669">Books</text></g><!--link TrekkingPackage to TourOperator--><g id="link_TrekkingPackage_TourOperator"><path codeLine="39" d="M141.5,468.264 C141.5,491.803 141.5,505.326 141.5,529.847 " fill="none" id="TrekkingPackage-to-TourOperator" style="stroke:#181818;stroke-width:1.0;"/><line style="stroke:#181818;stroke-width:1.0;" x1="141.5" x2="141.5" y1="533.847" y2="544.847"/><ellipse cx="141.5" cy="533.847" fill="none" rx="4" ry="4" style="stroke:#181818;stroke-width:1.0;"/><line style="stroke:#181818;stroke-width:1.0;" x1="145.5" x2="137.5" y1="540.847" y2="540.847"/><text fill="#000000" font-family="sans-serif" font-size="13" lengthAdjust="spacing" textLength="59" x="142.5" y="511.0669">Operates</text></g><!--link Booking to CustomerSupport--><g id="link_Booking_CustomerSupport"><path codeLine="40" d="M322.056,294.2 C329.954,317.33 335.1168,332.4498 343.4318,356.8008 " fill="none" id="Booking-to-CustomerSupport" style="stroke:#181818;stroke-width:1.0;"/><line style="stroke:#181818;stroke-width:1.0;" x1="344.7244" x2="348.279" y1="360.5862" y2="370.996"/><ellipse cx="344.7244" cy="360.5862" fill="none" rx="4" ry="4" style="stroke:#181818;stroke-width:1.0;"/><line style="stroke:#181818;stroke-width:1.0;" x1="350.7718" x2="343.201" y1="365.918" y2="368.5032"/><text fill="#000000" font-family="sans-serif" font-size="13" lengthAdjust="spacing" textLength="92" x="337.5" y="337.0669">Seeks Support</text></g><!--SRC=[RL7BReCm4Bpp5OvFxO4VoAs584LfKzHmwT4YszG2lCXUgq99_xqOcqTAENd6ExEUONE6Jwc0xOx5llXWe4XI5sq2cnyOVyWFZtnYCiTaZec2X1TejJJ4sJLY_HVWFdNgE6QPr8QEee7XzaKimAuHiXvEkJ3c6_Lv00bQHRgBVkOTpuYLL9TnHu3JZbGGXEKawgV66IpbXORA2N9HLk82eqs0aqqXgVO-APXIovOaAZ-fPGbtZdtAjnQq8DIZtOWdlmIRLgXkofkW8b5I3je4tqK3NwZkDYJM43QWJxPjKK_r1hYElZV6-jCx6ApjyFRUR_u_SOpNHPLRnbz51OP7C-T7LdLjlSoDhkvwoUrl7_sy1oltsp_1-kaJG6N6RFmN]--></g></svg>