<?xml version="1.0" encoding="us-ascii" standalone="no"?><svg xmlns="http://www.w3.org/2000/svg" xmlns:xlink="http://www.w3.org/1999/xlink" contentStyleType="text/css" height="569px" preserveAspectRatio="none" style="width:1155px;height:569px;background:#FFFFFF;" version="1.1" viewBox="0 0 1155 569" width="1155px" zoomAndPan="magnify"><defs/><g><!--class User--><g id="elem_User"><rect codeLine="14" fill="#FFFFFF" height="162.0781" id="User" rx="2.5" ry="2.5" style="stroke:#2688D4;stroke-width:0.5;" width="224" x="7" y="204"/><ellipse cx="99.25" cy="220" fill="#ADD1B2" rx="11" ry="11" style="stroke:#181818;stroke-width:1.0;"/><path d="M98.0469,220.875 L99.5,220.875 L99.5,220.9844 C99.5,221.3906 99.5313,221.5469 99.6094,221.7031 C99.7656,221.9531 100.0469,222.1094 100.3438,222.1094 C100.5938,222.1094 100.8594,221.9688 101.0156,221.75 C101.1406,221.5938 101.1719,221.4375 101.1719,220.9844 L101.1719,219.0625 C101.1719,218.9063 101.1719,218.8594 101.1563,218.7031 C101.0938,218.2344 100.7813,217.9219 100.3281,217.9219 C100.0781,217.9219 99.8125,218.0625 99.6406,218.2813 C99.5313,218.4531 99.5,218.6094 99.5,219.0625 L99.5,219.1875 L98.0469,219.1875 L98.0469,216.7813 L102.0313,216.7813 L102.0313,217.6406 C102.0313,218.0469 102.0625,218.2188 102.1406,218.375 C102.3125,218.625 102.5938,218.7813 102.875,218.7813 C103.1406,218.7813 103.4063,218.6406 103.5781,218.4219 C103.6875,218.25 103.7188,218.1094 103.7188,217.6406 L103.7188,215.0938 L96.0938,215.0938 C95.6563,215.0938 95.5313,215.1094 95.375,215.2031 C95.125,215.3594 94.9688,215.6563 94.9688,215.9375 C94.9688,216.2188 95.1094,216.4688 95.3281,216.6406 C95.4844,216.75 95.6719,216.7813 96.0938,216.7813 L96.3438,216.7813 L96.3438,223.2969 L96.0938,223.2969 C95.6875,223.2969 95.5313,223.3125 95.375,223.4219 C95.125,223.5938 94.9688,223.8594 94.9688,224.1563 C94.9688,224.4219 95.1094,224.6719 95.3281,224.8281 C95.4688,224.9531 95.7031,225 96.0938,225 L104.0938,225 L104.0938,222.4219 C104.0938,221.9844 104.0625,221.8438 103.9844,221.6875 C103.8125,221.4375 103.5313,221.2813 103.25,221.2813 C102.9844,221.2813 102.7188,221.3906 102.5469,221.6406 C102.4375,221.7969 102.4063,221.9375 102.4063,222.4219 L102.4063,223.2969 L98.0469,223.2969 L98.0469,220.875 Z " fill="#000000"/><text fill="#000000" font-family="sans-serif" font-size="14" lengthAdjust="spacing" textLength="31" x="119.75" y="224.8467">User</text><line style="stroke:#2688D4;stroke-width:0.5;" x1="8" x2="230" y1="236" y2="236"/><line style="stroke:#2688D4;stroke-width:0.5;" x1="8" x2="230" y1="244" y2="244"/><text fill="#000000" font-family="sans-serif" font-size="14" lengthAdjust="spacing" textLength="158" x="13" y="260.9951">primary_key (id): UUID</text><text fill="#000000" font-family="sans-serif" font-size="14" lengthAdjust="spacing" textLength="185" x="13" y="277.292">column (name): VARCHAR</text><text fill="#000000" font-family="sans-serif" font-size="14" lengthAdjust="spacing" textLength="184" x="13" y="293.5889">column (email): VARCHAR</text><text fill="#000000" font-family="sans-serif" font-size="14" lengthAdjust="spacing" textLength="212" x="13" y="309.8857">column (password): VARCHAR</text><text fill="#000000" font-family="sans-serif" font-size="14" lengthAdjust="spacing" textLength="191" x="13" y="326.1826">column (phone): VARCHAR</text><text fill="#000000" font-family="sans-serif" font-size="14" lengthAdjust="spacing" textLength="200" x="13" y="342.4795">column (address): VARCHAR</text><text fill="#000000" font-family="sans-serif" font-size="14" lengthAdjust="spacing" textLength="197" x="13" y="358.7764">column (preferences): JSON</text></g><!--class Business--><g id="elem_Business"><rect codeLine="24" fill="#FFFFFF" height="162.0781" id="Business" rx="2.5" ry="2.5" style="stroke:#2688D4;stroke-width:0.5;" width="224" x="291" y="342"/><ellipse cx="368.25" cy="358" fill="#ADD1B2" rx="11" ry="11" style="stroke:#181818;stroke-width:1.0;"/><path d="M367.0469,358.875 L368.5,358.875 L368.5,358.9844 C368.5,359.3906 368.5313,359.5469 368.6094,359.7031 C368.7656,359.9531 369.0469,360.1094 369.3438,360.1094 C369.5938,360.1094 369.8594,359.9688 370.0156,359.75 C370.1406,359.5938 370.1719,359.4375 370.1719,358.9844 L370.1719,357.0625 C370.1719,356.9063 370.1719,356.8594 370.1563,356.7031 C370.0938,356.2344 369.7813,355.9219 369.3281,355.9219 C369.0781,355.9219 368.8125,356.0625 368.6406,356.2813 C368.5313,356.4531 368.5,356.6094 368.5,357.0625 L368.5,357.1875 L367.0469,357.1875 L367.0469,354.7813 L371.0313,354.7813 L371.0313,355.6406 C371.0313,356.0469 371.0625,356.2188 371.1406,356.375 C371.3125,356.625 371.5938,356.7813 371.875,356.7813 C372.1406,356.7813 372.4063,356.6406 372.5781,356.4219 C372.6875,356.25 372.7188,356.1094 372.7188,355.6406 L372.7188,353.0938 L365.0938,353.0938 C364.6563,353.0938 364.5313,353.1094 364.375,353.2031 C364.125,353.3594 363.9688,353.6563 363.9688,353.9375 C363.9688,354.2188 364.1094,354.4688 364.3281,354.6406 C364.4844,354.75 364.6719,354.7813 365.0938,354.7813 L365.3438,354.7813 L365.3438,361.2969 L365.0938,361.2969 C364.6875,361.2969 364.5313,361.3125 364.375,361.4219 C364.125,361.5938 363.9688,361.8594 363.9688,362.1563 C363.9688,362.4219 364.1094,362.6719 364.3281,362.8281 C364.4688,362.9531 364.7031,363 365.0938,363 L373.0938,363 L373.0938,360.4219 C373.0938,359.9844 373.0625,359.8438 372.9844,359.6875 C372.8125,359.4375 372.5313,359.2813 372.25,359.2813 C371.9844,359.2813 371.7188,359.3906 371.5469,359.6406 C371.4375,359.7969 371.4063,359.9375 371.4063,360.4219 L371.4063,361.2969 L367.0469,361.2969 L367.0469,358.875 Z " fill="#000000"/><text fill="#000000" font-family="sans-serif" font-size="14" lengthAdjust="spacing" textLength="61" x="388.75" y="362.8467">Business</text><line style="stroke:#2688D4;stroke-width:0.5;" x1="292" x2="514" y1="374" y2="374"/><line style="stroke:#2688D4;stroke-width:0.5;" x1="292" x2="514" y1="382" y2="382"/><text fill="#000000" font-family="sans-serif" font-size="14" lengthAdjust="spacing" textLength="158" x="297" y="398.9951">primary_key (id): UUID</text><text fill="#000000" font-family="sans-serif" font-size="14" lengthAdjust="spacing" textLength="185" x="297" y="415.292">column (name): VARCHAR</text><text fill="#000000" font-family="sans-serif" font-size="14" lengthAdjust="spacing" textLength="184" x="297" y="431.5889">column (email): VARCHAR</text><text fill="#000000" font-family="sans-serif" font-size="14" lengthAdjust="spacing" textLength="212" x="297" y="447.8857">column (password): VARCHAR</text><text fill="#000000" font-family="sans-serif" font-size="14" lengthAdjust="spacing" textLength="191" x="297" y="464.1826">column (phone): VARCHAR</text><text fill="#000000" font-family="sans-serif" font-size="14" lengthAdjust="spacing" textLength="200" x="297" y="480.4795">column (address): VARCHAR</text><text fill="#000000" font-family="sans-serif" font-size="14" lengthAdjust="spacing" textLength="194" x="297" y="496.7764">column (description): TEXT</text></g><!--class Experience--><g id="elem_Experience"><rect codeLine="34" fill="#FFFFFF" height="178.375" id="Experience" rx="2.5" ry="2.5" style="stroke:#2688D4;stroke-width:0.5;" width="221" x="575" y="196"/><ellipse cx="640.75" cy="212" fill="#ADD1B2" rx="11" ry="11" style="stroke:#181818;stroke-width:1.0;"/><path d="M639.5469,212.875 L641,212.875 L641,212.9844 C641,213.3906 641.0313,213.5469 641.1094,213.7031 C641.2656,213.9531 641.5469,214.1094 641.8438,214.1094 C642.0938,214.1094 642.3594,213.9688 642.5156,213.75 C642.6406,213.5938 642.6719,213.4375 642.6719,212.9844 L642.6719,211.0625 C642.6719,210.9063 642.6719,210.8594 642.6563,210.7031 C642.5938,210.2344 642.2813,209.9219 641.8281,209.9219 C641.5781,209.9219 641.3125,210.0625 641.1406,210.2813 C641.0313,210.4531 641,210.6094 641,211.0625 L641,211.1875 L639.5469,211.1875 L639.5469,208.7813 L643.5313,208.7813 L643.5313,209.6406 C643.5313,210.0469 643.5625,210.2188 643.6406,210.375 C643.8125,210.625 644.0938,210.7813 644.375,210.7813 C644.6406,210.7813 644.9063,210.6406 645.0781,210.4219 C645.1875,210.25 645.2188,210.1094 645.2188,209.6406 L645.2188,207.0938 L637.5938,207.0938 C637.1563,207.0938 637.0313,207.1094 636.875,207.2031 C636.625,207.3594 636.4688,207.6563 636.4688,207.9375 C636.4688,208.2188 636.6094,208.4688 636.8281,208.6406 C636.9844,208.75 637.1719,208.7813 637.5938,208.7813 L637.8438,208.7813 L637.8438,215.2969 L637.5938,215.2969 C637.1875,215.2969 637.0313,215.3125 636.875,215.4219 C636.625,215.5938 636.4688,215.8594 636.4688,216.1563 C636.4688,216.4219 636.6094,216.6719 636.8281,216.8281 C636.9688,216.9531 637.2031,217 637.5938,217 L645.5938,217 L645.5938,214.4219 C645.5938,213.9844 645.5625,213.8438 645.4844,213.6875 C645.3125,213.4375 645.0313,213.2813 644.75,213.2813 C644.4844,213.2813 644.2188,213.3906 644.0469,213.6406 C643.9375,213.7969 643.9063,213.9375 643.9063,214.4219 L643.9063,215.2969 L639.5469,215.2969 L639.5469,212.875 Z " fill="#000000"/><text fill="#000000" font-family="sans-serif" font-size="14" lengthAdjust="spacing" textLength="81" x="661.25" y="216.8467">Experience</text><line style="stroke:#2688D4;stroke-width:0.5;" x1="576" x2="795" y1="228" y2="228"/><line style="stroke:#2688D4;stroke-width:0.5;" x1="576" x2="795" y1="236" y2="236"/><text fill="#000000" font-family="sans-serif" font-size="14" lengthAdjust="spacing" textLength="158" x="581" y="252.9951">primary_key (id): UUID</text><text fill="#000000" font-family="sans-serif" font-size="14" lengthAdjust="spacing" textLength="185" x="581" y="269.292">column (name): VARCHAR</text><text fill="#000000" font-family="sans-serif" font-size="14" lengthAdjust="spacing" textLength="176" x="581" y="285.5889">column (price): DECIMAL</text><text fill="#000000" font-family="sans-serif" font-size="14" lengthAdjust="spacing" textLength="197" x="581" y="301.8857">column (duration): INTEGER</text><text fill="#000000" font-family="sans-serif" font-size="14" lengthAdjust="spacing" textLength="203" x="581" y="318.1826">column (location): VARCHAR</text><text fill="#000000" font-family="sans-serif" font-size="14" lengthAdjust="spacing" textLength="209" x="581" y="334.4795">column (category): VARCHAR</text><text fill="#000000" font-family="sans-serif" font-size="14" lengthAdjust="spacing" textLength="194" x="581" y="350.7764">column (description): TEXT</text><text fill="#000000" font-family="sans-serif" font-size="14" lengthAdjust="spacing" textLength="186" x="581" y="367.0732">column (availability): JSON</text></g><!--class Booking--><g id="elem_Booking"><rect codeLine="45" fill="#FFFFFF" height="162.0781" id="Booking" rx="2.5" ry="2.5" style="stroke:#2688D4;stroke-width:0.5;" width="292" x="856" y="7"/><ellipse cx="968.25" cy="23" fill="#ADD1B2" rx="11" ry="11" style="stroke:#181818;stroke-width:1.0;"/><path d="M967.0469,23.875 L968.5,23.875 L968.5,23.9844 C968.5,24.3906 968.5313,24.5469 968.6094,24.7031 C968.7656,24.9531 969.0469,25.1094 969.3438,25.1094 C969.5938,25.1094 969.8594,24.9688 970.0156,24.75 C970.1406,24.5938 970.1719,24.4375 970.1719,23.9844 L970.1719,22.0625 C970.1719,21.9063 970.1719,21.8594 970.1563,21.7031 C970.0938,21.2344 969.7813,20.9219 969.3281,20.9219 C969.0781,20.9219 968.8125,21.0625 968.6406,21.2813 C968.5313,21.4531 968.5,21.6094 968.5,22.0625 L968.5,22.1875 L967.0469,22.1875 L967.0469,19.7813 L971.0313,19.7813 L971.0313,20.6406 C971.0313,21.0469 971.0625,21.2188 971.1406,21.375 C971.3125,21.625 971.5938,21.7813 971.875,21.7813 C972.1406,21.7813 972.4063,21.6406 972.5781,21.4219 C972.6875,21.25 972.7188,21.1094 972.7188,20.6406 L972.7188,18.0938 L965.0938,18.0938 C964.6563,18.0938 964.5313,18.1094 964.375,18.2031 C964.125,18.3594 963.9688,18.6563 963.9688,18.9375 C963.9688,19.2188 964.1094,19.4688 964.3281,19.6406 C964.4844,19.75 964.6719,19.7813 965.0938,19.7813 L965.3438,19.7813 L965.3438,26.2969 L965.0938,26.2969 C964.6875,26.2969 964.5313,26.3125 964.375,26.4219 C964.125,26.5938 963.9688,26.8594 963.9688,27.1563 C963.9688,27.4219 964.1094,27.6719 964.3281,27.8281 C964.4688,27.9531 964.7031,28 965.0938,28 L973.0938,28 L973.0938,25.4219 C973.0938,24.9844 973.0625,24.8438 972.9844,24.6875 C972.8125,24.4375 972.5313,24.2813 972.25,24.2813 C971.9844,24.2813 971.7188,24.3906 971.5469,24.6406 C971.4375,24.7969 971.4063,24.9375 971.4063,25.4219 L971.4063,26.2969 L967.0469,26.2969 L967.0469,23.875 Z " fill="#000000"/><text fill="#000000" font-family="sans-serif" font-size="14" lengthAdjust="spacing" textLength="59" x="988.75" y="27.8467">Booking</text><line style="stroke:#2688D4;stroke-width:0.5;" x1="857" x2="1147" y1="39" y2="39"/><line style="stroke:#2688D4;stroke-width:0.5;" x1="857" x2="1147" y1="47" y2="47"/><text fill="#000000" font-family="sans-serif" font-size="14" lengthAdjust="spacing" textLength="158" x="862" y="63.9951">primary_key (id): UUID</text><text fill="#000000" font-family="sans-serif" font-size="14" lengthAdjust="spacing" textLength="229" x="862" y="80.292">foreign_key (user_id): UUID &#171;FK&#187;</text><text fill="#000000" font-family="sans-serif" font-size="14" lengthAdjust="spacing" textLength="280" x="862" y="96.5889">foreign_key (experience_id): UUID &#171;FK&#187;</text><text fill="#000000" font-family="sans-serif" font-size="14" lengthAdjust="spacing" textLength="147" x="862" y="112.8857">column (date): DATE</text><text fill="#000000" font-family="sans-serif" font-size="14" lengthAdjust="spacing" textLength="143" x="862" y="129.1826">column (time): TIME</text><text fill="#000000" font-family="sans-serif" font-size="14" lengthAdjust="spacing" textLength="189" x="862" y="145.4795">column (status): VARCHAR</text><text fill="#000000" font-family="sans-serif" font-size="14" lengthAdjust="spacing" textLength="174" x="862" y="161.7764">column (payment): JSON</text></g><!--class Rating--><g id="elem_Rating"><rect codeLine="55" fill="#FFFFFF" height="129.4844" id="Rating" rx="2.5" ry="2.5" style="stroke:#2688D4;stroke-width:0.5;" width="292" x="856" y="220.5"/><ellipse cx="974.25" cy="236.5" fill="#ADD1B2" rx="11" ry="11" style="stroke:#181818;stroke-width:1.0;"/><path d="M973.0469,237.375 L974.5,237.375 L974.5,237.4844 C974.5,237.8906 974.5313,238.0469 974.6094,238.2031 C974.7656,238.4531 975.0469,238.6094 975.3438,238.6094 C975.5938,238.6094 975.8594,238.4688 976.0156,238.25 C976.1406,238.0938 976.1719,237.9375 976.1719,237.4844 L976.1719,235.5625 C976.1719,235.4063 976.1719,235.3594 976.1563,235.2031 C976.0938,234.7344 975.7813,234.4219 975.3281,234.4219 C975.0781,234.4219 974.8125,234.5625 974.6406,234.7813 C974.5313,234.9531 974.5,235.1094 974.5,235.5625 L974.5,235.6875 L973.0469,235.6875 L973.0469,233.2813 L977.0313,233.2813 L977.0313,234.1406 C977.0313,234.5469 977.0625,234.7188 977.1406,234.875 C977.3125,235.125 977.5938,235.2813 977.875,235.2813 C978.1406,235.2813 978.4063,235.1406 978.5781,234.9219 C978.6875,234.75 978.7188,234.6094 978.7188,234.1406 L978.7188,231.5938 L971.0938,231.5938 C970.6563,231.5938 970.5313,231.6094 970.375,231.7031 C970.125,231.8594 969.9688,232.1563 969.9688,232.4375 C969.9688,232.7188 970.1094,232.9688 970.3281,233.1406 C970.4844,233.25 970.6719,233.2813 971.0938,233.2813 L971.3438,233.2813 L971.3438,239.7969 L971.0938,239.7969 C970.6875,239.7969 970.5313,239.8125 970.375,239.9219 C970.125,240.0938 969.9688,240.3594 969.9688,240.6563 C969.9688,240.9219 970.1094,241.1719 970.3281,241.3281 C970.4688,241.4531 970.7031,241.5 971.0938,241.5 L979.0938,241.5 L979.0938,238.9219 C979.0938,238.4844 979.0625,238.3438 978.9844,238.1875 C978.8125,237.9375 978.5313,237.7813 978.25,237.7813 C977.9844,237.7813 977.7188,237.8906 977.5469,238.1406 C977.4375,238.2969 977.4063,238.4375 977.4063,238.9219 L977.4063,239.7969 L973.0469,239.7969 L973.0469,237.375 Z " fill="#000000"/><text fill="#000000" font-family="sans-serif" font-size="14" lengthAdjust="spacing" textLength="47" x="994.75" y="241.3467">Rating</text><line style="stroke:#2688D4;stroke-width:0.5;" x1="857" x2="1147" y1="252.5" y2="252.5"/><line style="stroke:#2688D4;stroke-width:0.5;" x1="857" x2="1147" y1="260.5" y2="260.5"/><text fill="#000000" font-family="sans-serif" font-size="14" lengthAdjust="spacing" textLength="158" x="862" y="277.4951">primary_key (id): UUID</text><text fill="#000000" font-family="sans-serif" font-size="14" lengthAdjust="spacing" textLength="229" x="862" y="293.792">foreign_key (user_id): UUID &#171;FK&#187;</text><text fill="#000000" font-family="sans-serif" font-size="14" lengthAdjust="spacing" textLength="280" x="862" y="310.0889">foreign_key (experience_id): UUID &#171;FK&#187;</text><text fill="#000000" font-family="sans-serif" font-size="14" lengthAdjust="spacing" textLength="260" x="862" y="326.3857">foreign_key (business_id): UUID &#171;FK&#187;</text><text fill="#000000" font-family="sans-serif" font-size="14" lengthAdjust="spacing" textLength="174" x="862" y="342.6826">column (value): INTEGER</text></g><!--class Review--><g id="elem_Review"><rect codeLine="63" fill="#FFFFFF" height="129.4844" id="Review" rx="2.5" ry="2.5" style="stroke:#2688D4;stroke-width:0.5;" width="292" x="856" y="433.5"/><ellipse cx="972.25" cy="449.5" fill="#ADD1B2" rx="11" ry="11" style="stroke:#181818;stroke-width:1.0;"/><path d="M971.0469,450.375 L972.5,450.375 L972.5,450.4844 C972.5,450.8906 972.5313,451.0469 972.6094,451.2031 C972.7656,451.4531 973.0469,451.6094 973.3438,451.6094 C973.5938,451.6094 973.8594,451.4688 974.0156,451.25 C974.1406,451.0938 974.1719,450.9375 974.1719,450.4844 L974.1719,448.5625 C974.1719,448.4063 974.1719,448.3594 974.1563,448.2031 C974.0938,447.7344 973.7813,447.4219 973.3281,447.4219 C973.0781,447.4219 972.8125,447.5625 972.6406,447.7813 C972.5313,447.9531 972.5,448.1094 972.5,448.5625 L972.5,448.6875 L971.0469,448.6875 L971.0469,446.2813 L975.0313,446.2813 L975.0313,447.1406 C975.0313,447.5469 975.0625,447.7188 975.1406,447.875 C975.3125,448.125 975.5938,448.2813 975.875,448.2813 C976.1406,448.2813 976.4063,448.1406 976.5781,447.9219 C976.6875,447.75 976.7188,447.6094 976.7188,447.1406 L976.7188,444.5938 L969.0938,444.5938 C968.6563,444.5938 968.5313,444.6094 968.375,444.7031 C968.125,444.8594 967.9688,445.1563 967.9688,445.4375 C967.9688,445.7188 968.1094,445.9688 968.3281,446.1406 C968.4844,446.25 968.6719,446.2813 969.0938,446.2813 L969.3438,446.2813 L969.3438,452.7969 L969.0938,452.7969 C968.6875,452.7969 968.5313,452.8125 968.375,452.9219 C968.125,453.0938 967.9688,453.3594 967.9688,453.6563 C967.9688,453.9219 968.1094,454.1719 968.3281,454.3281 C968.4688,454.4531 968.7031,454.5 969.0938,454.5 L977.0938,454.5 L977.0938,451.9219 C977.0938,451.4844 977.0625,451.3438 976.9844,451.1875 C976.8125,450.9375 976.5313,450.7813 976.25,450.7813 C975.9844,450.7813 975.7188,450.8906 975.5469,451.1406 C975.4375,451.2969 975.4063,451.4375 975.4063,451.9219 L975.4063,452.7969 L971.0469,452.7969 L971.0469,450.375 Z " fill="#000000"/><text fill="#000000" font-family="sans-serif" font-size="14" lengthAdjust="spacing" textLength="51" x="992.75" y="454.3467">Review</text><line style="stroke:#2688D4;stroke-width:0.5;" x1="857" x2="1147" y1="465.5" y2="465.5"/><line style="stroke:#2688D4;stroke-width:0.5;" x1="857" x2="1147" y1="473.5" y2="473.5"/><text fill="#000000" font-family="sans-serif" font-size="14" lengthAdjust="spacing" textLength="158" x="862" y="490.4951">primary_key (id): UUID</text><text fill="#000000" font-family="sans-serif" font-size="14" lengthAdjust="spacing" textLength="229" x="862" y="506.792">foreign_key (user_id): UUID &#171;FK&#187;</text><text fill="#000000" font-family="sans-serif" font-size="14" lengthAdjust="spacing" textLength="280" x="862" y="523.0889">foreign_key (experience_id): UUID &#171;FK&#187;</text><text fill="#000000" font-family="sans-serif" font-size="14" lengthAdjust="spacing" textLength="260" x="862" y="539.3857">foreign_key (business_id): UUID &#171;FK&#187;</text><text fill="#000000" font-family="sans-serif" font-size="14" lengthAdjust="spacing" textLength="170" x="862" y="555.6826">column (content): TEXT</text></g><!--link User to Booking--><g id="link_User_Booking"><path codeLine="71" d="M82,195.735 C82,141.469 82,88 82,88 C82,88 588.472,88 847.969,88 " fill="none" id="User-Booking" style="stroke:#2688D4;stroke-width:1.0;stroke-dasharray:7.0,7.0;"/><line style="stroke:#2688D4;stroke-width:1.0;" x1="86" x2="78" y1="199.735" y2="199.735"/><line style="stroke:#2688D4;stroke-width:1.0;" x1="86" x2="78" y1="196.735" y2="196.735"/><line style="stroke:#2688D4;stroke-width:1.0;" x1="82" x2="82" y1="195.735" y2="203.735"/><line style="stroke:#2688D4;stroke-width:1.0;" x1="851.969" x2="851.969" y1="84" y2="92"/><line style="stroke:#2688D4;stroke-width:1.0;" x1="848.969" x2="848.969" y1="84" y2="92"/><line style="stroke:#2688D4;stroke-width:1.0;" x1="847.969" x2="855.969" y1="88" y2="88"/></g><!--link User to Experience--><g id="link_User_Experience"><path codeLine="72" d="M239.261,273 C338.933,273 467.746,273 566.909,273 " fill="none" id="User-Experience" style="stroke:#2688D4;stroke-width:1.0;stroke-dasharray:7.0,7.0;"/><line style="stroke:#2688D4;stroke-width:1.0;" x1="239.261" x2="231.261" y1="273" y2="279"/><line style="stroke:#2688D4;stroke-width:1.0;" x1="239.261" x2="231.261" y1="273" y2="267"/><line style="stroke:#2688D4;stroke-width:1.0;" x1="239.261" x2="231.261" y1="273" y2="273"/><line style="stroke:#2688D4;stroke-width:1.0;" x1="241.261" x2="241.261" y1="277" y2="269"/><line style="stroke:#2688D4;stroke-width:1.0;" x1="566.909" x2="574.909" y1="273" y2="267"/><line style="stroke:#2688D4;stroke-width:1.0;" x1="566.909" x2="574.909" y1="273" y2="279"/><line style="stroke:#2688D4;stroke-width:1.0;" x1="566.909" x2="574.909" y1="273" y2="273"/><line style="stroke:#2688D4;stroke-width:1.0;" x1="564.909" x2="564.909" y1="269" y2="277"/></g><!--link User to Business--><g id="link_User_Business"><path codeLine="73" d="M239.244,354 C258.78,354 263.102,354 282.641,354 " fill="none" id="User-Business" style="stroke:#2688D4;stroke-width:1.0;stroke-dasharray:7.0,7.0;"/><line style="stroke:#2688D4;stroke-width:1.0;" x1="239.244" x2="231.244" y1="354" y2="360"/><line style="stroke:#2688D4;stroke-width:1.0;" x1="239.244" x2="231.244" y1="354" y2="348"/><line style="stroke:#2688D4;stroke-width:1.0;" x1="239.244" x2="231.244" y1="354" y2="354"/><line style="stroke:#2688D4;stroke-width:1.0;" x1="241.244" x2="241.244" y1="358" y2="350"/><line style="stroke:#2688D4;stroke-width:1.0;" x1="282.641" x2="290.641" y1="354" y2="348"/><line style="stroke:#2688D4;stroke-width:1.0;" x1="282.641" x2="290.641" y1="354" y2="360"/><line style="stroke:#2688D4;stroke-width:1.0;" x1="282.641" x2="290.641" y1="354" y2="354"/><line style="stroke:#2688D4;stroke-width:1.0;" x1="280.641" x2="280.641" y1="350" y2="358"/></g><!--link Business to Experience--><g id="link_Business_Experience"><path codeLine="74" d="M523.057,358 C542.775,358 547.287,358 566.963,358 " fill="none" id="Business-Experience" style="stroke:#2688D4;stroke-width:1.0;"/><line style="stroke:#2688D4;stroke-width:1.0;" x1="519.057" x2="519.057" y1="362" y2="354"/><line style="stroke:#2688D4;stroke-width:1.0;" x1="522.057" x2="522.057" y1="362" y2="354"/><line style="stroke:#2688D4;stroke-width:1.0;" x1="523.057" x2="515.057" y1="358" y2="358"/><line style="stroke:#2688D4;stroke-width:1.0;" x1="570.963" x2="570.963" y1="354" y2="362"/><line style="stroke:#2688D4;stroke-width:1.0;" x1="567.963" x2="567.963" y1="354" y2="362"/><line style="stroke:#2688D4;stroke-width:1.0;" x1="566.963" x2="574.963" y1="358" y2="358"/></g><!--link Experience to Booking--><g id="link_Experience_Booking"><path codeLine="75" d="M804.154,208.25 C911.73,208.25 1051,208.25 1051,208.25 C1051,208.25 1051,198.807 1051,177.208 " fill="none" id="Experience-Booking" style="stroke:#2688D4;stroke-width:1.0;stroke-dasharray:7.0,7.0;"/><line style="stroke:#2688D4;stroke-width:1.0;" x1="804.154" x2="796.154" y1="208.25" y2="214.25"/><line style="stroke:#2688D4;stroke-width:1.0;" x1="804.154" x2="796.154" y1="208.25" y2="202.25"/><line style="stroke:#2688D4;stroke-width:1.0;" x1="804.154" x2="796.154" y1="208.25" y2="208.25"/><line style="stroke:#2688D4;stroke-width:1.0;" x1="806.154" x2="806.154" y1="212.25" y2="204.25"/><line style="stroke:#2688D4;stroke-width:1.0;" x1="1051" x2="1045" y1="177.208" y2="169.208"/><line style="stroke:#2688D4;stroke-width:1.0;" x1="1051" x2="1057" y1="177.208" y2="169.208"/><line style="stroke:#2688D4;stroke-width:1.0;" x1="1051" x2="1051" y1="177.208" y2="169.208"/><line style="stroke:#2688D4;stroke-width:1.0;" x1="1047" x2="1055" y1="179.208" y2="179.208"/></g><!--link User to Rating--><g id="link_User_Rating"><path codeLine="76" d="M157,195.738 C157,183.298 157,182.5 157,182.5 C157,182.5 954,182.5 954,182.5 C954,182.5 954,191.908 954,212.376 " fill="none" id="User-Rating" style="stroke:#2688D4;stroke-width:1.0;stroke-dasharray:7.0,7.0;"/><line style="stroke:#2688D4;stroke-width:1.0;" x1="161" x2="153" y1="199.738" y2="199.738"/><line style="stroke:#2688D4;stroke-width:1.0;" x1="161" x2="153" y1="196.738" y2="196.738"/><line style="stroke:#2688D4;stroke-width:1.0;" x1="157" x2="157" y1="195.738" y2="203.738"/><line style="stroke:#2688D4;stroke-width:1.0;" x1="958" x2="950" y1="216.376" y2="216.376"/><line style="stroke:#2688D4;stroke-width:1.0;" x1="958" x2="950" y1="213.376" y2="213.376"/><line style="stroke:#2688D4;stroke-width:1.0;" x1="954" x2="954" y1="212.376" y2="220.376"/></g><!--link Experience to Rating--><g id="link_Experience_Rating"><path codeLine="77" d="M804.196,285 C823.448,285 827.736,285 847.765,285 " fill="none" id="Experience-Rating" style="stroke:#2688D4;stroke-width:1.0;stroke-dasharray:7.0,7.0;"/><line style="stroke:#2688D4;stroke-width:1.0;" x1="800.196" x2="800.196" y1="289" y2="281"/><line style="stroke:#2688D4;stroke-width:1.0;" x1="803.196" x2="803.196" y1="289" y2="281"/><line style="stroke:#2688D4;stroke-width:1.0;" x1="804.196" x2="796.196" y1="285" y2="285"/><line style="stroke:#2688D4;stroke-width:1.0;" x1="851.765" x2="851.765" y1="281" y2="289"/><line style="stroke:#2688D4;stroke-width:1.0;" x1="848.765" x2="848.765" y1="281" y2="289"/><line style="stroke:#2688D4;stroke-width:1.0;" x1="847.765" x2="855.765" y1="285" y2="285"/></g><!--link Business to Rating--><g id="link_Business_Rating"><path codeLine="78" d="M523.316,403.75 C696.76,403.75 1002,403.75 1002,403.75 C1002,403.75 1002,385.44 1002,357.588 " fill="none" id="Business-Rating" style="stroke:#2688D4;stroke-width:1.0;stroke-dasharray:7.0,7.0;"/><line style="stroke:#2688D4;stroke-width:1.0;" x1="519.316" x2="519.316" y1="407.75" y2="399.75"/><line style="stroke:#2688D4;stroke-width:1.0;" x1="522.316" x2="522.316" y1="407.75" y2="399.75"/><line style="stroke:#2688D4;stroke-width:1.0;" x1="523.316" x2="515.316" y1="403.75" y2="403.75"/><line style="stroke:#2688D4;stroke-width:1.0;" x1="998" x2="1006" y1="353.588" y2="353.588"/><line style="stroke:#2688D4;stroke-width:1.0;" x1="998" x2="1006" y1="356.588" y2="356.588"/><line style="stroke:#2688D4;stroke-width:1.0;" x1="1002" x2="1002" y1="357.588" y2="349.588"/></g><!--link User to Review--><g id="link_User_Review"><path codeLine="79" d="M119,374.286 C119,446.687 119,533.25 119,533.25 C119,533.25 596.754,533.25 847.695,533.25 " fill="none" id="User-Review" style="stroke:#2688D4;stroke-width:1.0;stroke-dasharray:7.0,7.0;"/><line style="stroke:#2688D4;stroke-width:1.0;" x1="115" x2="123" y1="370.286" y2="370.286"/><line style="stroke:#2688D4;stroke-width:1.0;" x1="115" x2="123" y1="373.286" y2="373.286"/><line style="stroke:#2688D4;stroke-width:1.0;" x1="119" x2="119" y1="374.286" y2="366.286"/><line style="stroke:#2688D4;stroke-width:1.0;" x1="851.695" x2="851.695" y1="529.25" y2="537.25"/><line style="stroke:#2688D4;stroke-width:1.0;" x1="848.695" x2="848.695" y1="529.25" y2="537.25"/><line style="stroke:#2688D4;stroke-width:1.0;" x1="847.695" x2="855.695" y1="533.25" y2="533.25"/></g><!--link Experience to Review--><g id="link_Experience_Review"><path codeLine="80" d="M686,382.023 C686,423.992 686,457 686,457 C686,457 764.903,457 847.563,457 " fill="none" id="Experience-Review" style="stroke:#2688D4;stroke-width:1.0;stroke-dasharray:7.0,7.0;"/><line style="stroke:#2688D4;stroke-width:1.0;" x1="682" x2="690" y1="378.023" y2="378.023"/><line style="stroke:#2688D4;stroke-width:1.0;" x1="682" x2="690" y1="381.023" y2="381.023"/><line style="stroke:#2688D4;stroke-width:1.0;" x1="686" x2="686" y1="382.023" y2="374.023"/><line style="stroke:#2688D4;stroke-width:1.0;" x1="851.563" x2="851.563" y1="453" y2="461"/><line style="stroke:#2688D4;stroke-width:1.0;" x1="848.563" x2="848.563" y1="453" y2="461"/><line style="stroke:#2688D4;stroke-width:1.0;" x1="847.563" x2="855.563" y1="457" y2="457"/></g><!--link Business to Review--><g id="link_Business_Review"><path codeLine="81" d="M523.316,480.5 C619.608,480.5 742.988,480.5 847.934,480.5 " fill="none" id="Business-Review" style="stroke:#2688D4;stroke-width:1.0;stroke-dasharray:7.0,7.0;"/><line style="stroke:#2688D4;stroke-width:1.0;" x1="519.316" x2="519.316" y1="484.5" y2="476.5"/><line style="stroke:#2688D4;stroke-width:1.0;" x1="522.316" x2="522.316" y1="484.5" y2="476.5"/><line style="stroke:#2688D4;stroke-width:1.0;" x1="523.316" x2="515.316" y1="480.5" y2="480.5"/><line style="stroke:#2688D4;stroke-width:1.0;" x1="851.934" x2="851.934" y1="476.5" y2="484.5"/><line style="stroke:#2688D4;stroke-width:1.0;" x1="848.934" x2="848.934" y1="476.5" y2="484.5"/><line style="stroke:#2688D4;stroke-width:1.0;" x1="847.934" x2="855.934" y1="480.5" y2="480.5"/></g><!--SRC=[rLHTQzim57tFhn3ifNre7yOwoYW5DtMxR6i7cJFsLbJfnXQH9NCbnpDD_tklxJYL5syT3CRc9t7E_Jf7LzQmzCnRXYhDF9CAGNXbpSIjb2auyfoXBOqK5WqWEmbmhGpukW1cqMSs85p6fQsKITcIQmS1at4ZArJUWzdZXEREiOS9OnTShDAswzHgYwpAb0V28qHRTT2hrszFJ-MR9jYY11oYZnFwm7ZbQtQmS827RTq2LSwnlbi1mKeUlcEBnUoI265rcHjsO7WEX7wDvjFtqJmW8ETAZp853LtH2EDaPiruGIubWdFZMGXBG3026lx3by-tZQ1UpaNfo7TA_PyaIN02LT4i5l59_2q99SNV2q3L2FvJKPGf6kOodivkea_X12NoRVlPRH9Vns6Qjg8dzsiI1Qd5-dU51OwioM9-hpIf7Bj9QsdvqnSqBos2Iar7bBJBTpkMdPrTVJm__p48TdQEXUuc9rcDKr4I1wXNhRF9x2P4dUU-_CcoyZedGIFovcJfNrSt2BtVFfLVsR3ckeHWAK81i5PG_Ui2X3M-ku3-MJK_FBRP71zlDcoxOntss60FxFcv3U3-npBf3rJZw8Xg1F7FnrrMs63RjBlvC7X810r2U52YzNwiH4VibMZX9m00]--></g></svg>